<svg xmlns="http://www.w3.org/2000/svg" viewBox="0 0 48 48">
  <path
    fill="#000"
    d="M22.1004 12.6338c-1.2356 0-2.3177-.6418-2.9404-1.6087-.2359-.3662-.6282-.5979-1.0575-.6432v7.7348h-7.7746c.0576-.4115.2853-.7844.6377-1.0121.9669-.6213 1.6074-1.7046 1.6074-2.9403 0-2.0063-1.6895-3.6191-3.7248-3.4916-1.75.1097-3.1707 1.5414-3.2681 3.2928-.0727 1.3206.5869 2.4904 1.6114 3.1446.3511.2249.5733.5993.6281 1.0066H0V4.7673C0 2.1424 2.1284.014 4.7533.014h13.3494v7.8719c.4252-.0439.8187-.2702 1.0519-.635.6542-1.0231 1.824-1.6841 3.1461-1.6114 1.7513.0973 3.1831 1.5181 3.2927 3.2694.1262 2.0339-1.4852 3.7249-3.493 3.7249Z"
  />
  <path
    fill="#000"
    opacity="0.7"
    d="M36.2056 18.1167h-7.8294c.0329.4444.2619.8572.6377 1.0972 1.0244.6542 1.6841 1.8254 1.6114 3.1461-.0973 1.7513-1.5181 3.1831-3.2681 3.2928-2.0352.1276-3.7248-1.4853-3.7248-3.493 0-1.2343.6404-2.3177 1.6074-2.939.3799-.2455.6144-.6583.6487-1.104h-7.7856v-7.7348c.4293.0452.8214.277 1.0574.6432.6226.9669 1.7047 1.6087 2.9405 1.6087 2.0078 0 3.6192-1.6909 3.493-3.7247-.1097-1.7513-1.5414-3.1721-3.2928-3.2694-1.3221-.0727-2.4919.5883-3.1461 1.6114-.2332.3648-.6267.5911-1.0519.635V.014h13.3494c2.6249 0 4.7533 2.1284 4.7533 4.7533v13.3494Z"
  />
  <path
    fill="#000"
    opacity="0.45"
    d="M48 28.3833v13.3494c0 2.6249-2.1284 4.7533-4.7533 4.7533H29.8972v-7.78c-.4252.0439-.8187.2702-1.0519.635-.6542 1.0231-1.824 1.6841-3.1461 1.6101-1.7513-.0973-3.1831-1.5181-3.2927-3.2681-.1262-2.0352 1.4853-3.7248 3.493-3.7248 1.2356 0 2.3177.6405 2.9404 1.6074.2359.3676.6282.5979 1.0575.6432v-7.8253h7.7856c-.0343.4457-.2688.8585-.6487 1.104-.9669.6213-1.6074 1.7047-1.6074 2.939 0 2.0078 1.6895 3.6206 3.7248 3.493 1.75-.1097 3.1707-1.5414 3.2681-3.2928.0727-1.3206-.5869-2.4919-1.6114-3.1461-.3758-.24-.6048-.6528-.6377-1.0972H48Z"
  />
</svg>
