<svg xmlns="http://www.w3.org/2000/svg" viewBox="0 0 484.185 484.185">
  <path
    fill="#000"
    d="M282.023 39.931h-12.465V0h-54.931v39.931h-12.465c-9.64 0-17.482 7.843-17.482 17.482v129.775c0 9.64 7.843 17.482 17.482 17.482h12.465v279.515h54.931V204.67h12.465c9.64 0 17.483-7.843 17.483-17.482V57.413c0-9.64-7.843-17.482-17.483-17.482Z"
  />
  <path
    fill="#000"
    opacity="0.7"
    d="M431.763 149.74h-12.465V0h-54.93v149.74h-12.465c-9.64 0-17.483 7.843-17.483 17.483v129.774c0 9.64 7.843 17.483 17.483 17.483h12.465v169.705h54.93V314.48h12.465c9.64 0 17.483-7.843 17.483-17.483V167.223c0-9.64-7.843-17.483-17.483-17.483Z"
  />
  <path
    fill="#000"
    opacity="0.45"
    d="M132.283 239.584h-12.465V0H64.887v239.584H52.422c-9.64 0-17.483 7.843-17.483 17.482V386.84c0 9.64 7.843 17.483 17.483 17.483h12.465v79.861h54.931v-79.861h12.465c9.64 0 17.482-7.843 17.482-17.483V257.066c0-9.639-7.843-17.482-17.482-17.482Z"
  />
</svg>
