<svg xmlns="http://www.w3.org/2000/svg" viewBox="0 0 468.125 512">
  <path
    fill="#000"
    d="M468.125 128.73C304.284 99.474 234.069 0 234.069 0S163.848 99.474.013 128.73c0 64.367-5.858 277.944 234.057 383.27C473.977 406.675 468.125 193.098 468.125 128.73Z"
  />
  <path
    fill="#000"
    opacity="0.7"
    d="M234.069 466.88C63.977 384.073 43.61 240.378 41.256 161.786c95.349-23.792 158.067-69.25 192.814-101.558 34.746 32.308 97.458 77.766 192.807 101.558-2.349 78.592-22.722 222.287-192.808 305.094Z"
  />
  <path
    fill="#000"
    opacity="0.45"
    d="M410.284 169.867c-1.813 70.95-19.134 203.716-176.214 279.583-29.05-14.015-53.306-29.989-73.583-47.191-27.411-23.173-47.513-48.568-62.293-74.285-33.346-58.164-39.32-118.025-40.346-158.106 88.156-21.531 145.384-63.78 176.221-92.92 15.328 14.483 37.185 32.21 66.118 49.035 26.16 15.183 58.132 29.637 96.284 40.256 4.51 1.286 9.129 2.486 13.813 3.628Z"
  />
</svg>
