<svg width="24" height="24" viewBox="0 0 24 24" fill="none" xmlns="http://www.w3.org/2000/svg">
  <path d="M12 2C10 2 8 3 8 5C8 6.5 9 7.5 10 8C7 8 5 10 5 12C5 13 5.5 14 6 14.5M12 2C14 2 16 3 16 5C16 6.5 15 7.5 14 8C17 8 19 10 19 12C19 13 18.5 14 18 14.5" stroke="#e8991e" stroke-width="2" stroke-linecap="round"/>
  <path d="M5 15C3 15 2 16.5 2 18C2 20 3 22 5 22C6 22 7 21.5 7.5 21M19 15C21 15 22 16.5 22 18C22 20 21 22 19 22C18 22 17 21.5 16.5 21M12 10V22" stroke="#e8991e" stroke-width="2" stroke-linecap="round"/>
</svg>