<svg width="24" height="24" viewBox="0 0 24 24" fill="none" xmlns="http://www.w3.org/2000/svg">
  <path d="M12 2C6.48 2 2 6.48 2 12C2 13.54 2.37 15 3 16.35L2 22L7.65 21C9 21.63 10.46 22 12 22C17.52 22 22 17.52 22 12C22 6.48 17.52 2 12 2Z" fill="#e8991e" opacity="0.3"/>
  <path d="M12 2C6.48 2 2 6.48 2 12C2 13.54 2.37 15 3 16.35L2 22L7.65 21C9 21.63 10.46 22 12 22C17.52 22 22 17.52 22 12C22 6.48 17.52 2 12 2Z" stroke="#e8991e" stroke-width="1.5" fill="none"/>
  <circle cx="8" cy="12" r="1.5" fill="#e8991e"/>
  <circle cx="12" cy="12" r="1.5" fill="#e8991e"/>
  <circle cx="16" cy="12" r="1.5" fill="#e8991e"/>
</svg>